<svg width="566" height="94" viewBox="0 0 566 94" fill="none" xmlns="http://www.w3.org/2000/svg">
<path d="M565.266 1.2002V16.8002H521.466V37.5602H558.906V53.1602H521.466V76.5602H565.266V92.1602H503.226V1.2002H565.266Z" fill="#9C3D3E"/>
<path d="M454.99 46.8002C463.51 46.8002 468.91 41.7602 468.91 31.8002C468.91 21.8402 463.51 16.8002 454.99 16.8002H437.71V46.8002H454.99ZM491.47 92.1602H469.63L450.07 62.4002H437.71V92.1602H419.47V1.2002H458.95C475.51 1.2002 487.15 12.8402 487.15 31.0802C487.15 41.8802 484.27 51.0002 469.75 59.1602L491.47 92.1602Z" fill="#9C3D3E"/>
<path d="M359.828 77.2802C376.988 77.2802 387.668 65.5202 387.668 46.6802C387.668 27.8402 376.988 16.0802 359.828 16.0802C342.668 16.0802 331.987 27.8402 331.987 46.6802C331.987 65.5202 342.668 77.2802 359.828 77.2802ZM359.828 0.240234C386.828 0.240234 405.908 19.4402 405.908 46.6802C405.908 73.9202 386.828 93.1202 359.828 93.1202C332.828 93.1202 313.747 73.9202 313.747 46.6802C313.747 19.4402 332.828 0.240234 359.828 0.240234Z" fill="#9C3D3E"/>
<path d="M271.416 1.2002V76.5602H309.936V92.1602H253.176V1.2002H271.416Z" fill="#9C3D3E"/>
<path d="M210.074 46.8002C218.354 46.8002 224.114 40.5602 224.114 31.8002C224.114 23.0402 218.354 16.8002 210.074 16.8002H192.434V46.8002H210.074ZM210.674 1.2002C229.274 1.2002 242.354 13.8002 242.354 31.8002C242.354 49.8002 229.274 62.4002 210.674 62.4002H192.434V92.1602H174.194V1.2002H210.674Z" fill="#9C3D3E"/>
<path d="M159.745 1.2002L128.545 46.5602L159.745 92.1602H136.705L117.145 61.9202L97.2253 92.1602H74.1853L105.505 46.5602L74.1853 1.2002H97.2253L117.145 31.3202L136.705 1.32019L159.745 1.2002Z" fill="#9C3D3E"/>
<path d="M63 1.2002V16.8002H19.2V37.5602H56.64V53.1602H19.2V76.5602H63V92.1602H0.959991V1.2002H63Z" fill="#9C3D3E"/>
</svg>
