<svg width="790" height="97" viewBox="0 0 790 97" fill="none" xmlns="http://www.w3.org/2000/svg">
<path d="M737.833 64.5283C740.909 70.2153 743.923 73.4395 746.622 75.248C749.29 77.0354 751.769 77.5195 753.954 77.5195V79.5195L753.478 79.5127C748.509 79.368 742.236 76.8723 736.074 65.4795L721.313 73.8799C728.992 86.6375 740.042 94.7441 753.32 94.9941L753.954 95C774.39 94.9999 786.802 84.3018 787.185 68.8584L787.193 68.1201C787.193 38.6001 743.514 43.2796 743.514 27.5596C743.514 22.0397 747.594 17.4795 755.874 17.4795L756.25 17.4863C760.065 17.6117 765.37 19.7076 769.396 29.1143L769.794 30.0801L785.754 24.2002C779.73 8.48964 766.496 2.19675 756.354 2.00391L755.874 2C737.754 2 725.394 11.8397 725.394 27.5596C725.394 59.3596 769.074 52.2801 769.074 68.1201L769.062 68.7334C768.805 75.0151 764.532 79.5194 753.954 79.5195V77.5195C759.16 77.5195 762.406 76.3709 764.324 74.7627C766.184 73.2035 767.074 70.9764 767.074 68.1201C767.074 65.3489 765.272 63.332 761.35 61.3584C759.419 60.3869 757.129 59.5072 754.578 58.5928C752.067 57.6926 749.274 56.7483 746.519 55.6924C741 53.5774 735.214 50.8665 730.812 46.5068C726.333 42.0714 723.394 36.0373 723.394 27.5596C723.394 19.1294 726.73 12.164 732.564 7.34277C738.36 2.55335 746.469 0 755.874 0C766.828 9.39664e-05 781.179 6.68306 787.621 23.4834L788.347 25.376L768.656 32.6309L767.936 30.8193C765.933 25.7838 763.636 22.9769 761.55 21.4248C759.484 19.8879 757.489 19.4795 755.874 19.4795C752.095 19.4795 749.521 20.5167 747.919 21.9434C746.332 23.3566 745.514 25.3119 745.514 27.5596C745.514 30.3332 747.356 32.4734 751.296 34.6221C755.266 36.7871 760.45 38.4884 766.113 40.8145C771.615 43.0741 777.376 45.865 781.759 50.1016C786.219 54.413 789.193 60.1652 789.193 68.1201C789.193 76.6063 785.83 83.9012 779.636 89.0391C773.475 94.1487 764.673 96.9999 753.954 97C739.482 97 727.639 88.2669 719.601 74.9111L718.543 73.1553L736.86 62.7305L737.833 64.5283Z" fill="#9C3D3D"/>
<path d="M706.73 2.95996H688.49V63.6797L649.97 2.95996H629.33V93.9199H647.57V33.3193L686.09 93.9199H706.73V2.95996ZM708.73 95.9199H684.991L649.57 40.1943V95.9199H627.33V0.959961H651.069L686.49 56.7939V0.959961H708.73V95.9199Z" fill="#9C3D3D"/>
<path d="M616.127 48.4395C616.127 21.6251 597.639 2.60144 571.307 2.01367L570.047 2C543.047 2.00017 523.967 21.1997 523.967 48.4395C523.967 75.2537 542.455 94.2781 568.787 94.8662L570.047 94.8799C597.047 94.8799 616.127 75.6795 616.127 48.4395ZM595.888 48.4395C595.888 39.3883 593.325 32.2613 588.923 27.4199C584.54 22.6004 578.148 19.8398 570.047 19.8398C561.946 19.8399 555.554 22.6006 551.172 27.4199C546.769 32.2613 544.207 39.3883 544.207 48.4395C544.207 57.4906 546.769 64.6175 551.172 69.459C555.554 74.2784 561.946 77.04 570.047 77.04V79.04L569.248 79.0312C552.556 78.6708 542.207 66.9852 542.207 48.4395C542.207 29.5998 552.887 17.84 570.047 17.8398L570.847 17.8486C587.538 18.2092 597.888 29.894 597.888 48.4395L597.88 49.3174C597.552 67.6443 586.939 79.04 570.047 79.04V77.04C578.148 77.04 584.54 74.2785 588.923 69.459C593.325 64.6175 595.888 57.4906 595.888 48.4395ZM618.127 48.4395C618.127 62.5381 613.182 74.671 604.632 83.2842C596.081 91.8983 584.035 96.8799 570.047 96.8799C556.059 96.8798 544.014 91.8981 535.463 83.2842C526.913 74.671 521.967 62.5381 521.967 48.4395C521.967 34.341 526.913 22.2089 535.463 13.5957C544.014 4.98165 556.059 8.42345e-05 570.047 0C584.035 0 596.081 4.98155 604.632 13.5957C613.182 22.2089 618.127 34.341 618.127 48.4395Z" fill="#9C3D3D"/>
<path d="M510.352 2.95996H492.112V93.9199H510.352V2.95996ZM512.352 95.9199H490.112V0.959961H512.352V95.9199Z" fill="#9C3D3D"/>
<path d="M477.785 18.5596V2.95996H411.545V18.5596H435.785V93.9199H454.025V18.5596H477.785ZM479.785 20.5596H456.025V95.9199H433.785V20.5596H409.545V0.959961H479.785V20.5596Z" fill="#9C3D3D"/>
<path d="M397.266 2.95996H379.026V93.9199H397.266V2.95996ZM399.266 95.9199H377.026V0.959961H399.266V95.9199Z" fill="#9C3D3D"/>
<path d="M366.993 67.2793C366.993 59.2394 362.313 50.5992 355.713 46.2793C354.633 45.5594 353.433 44.7199 352.233 44C356.186 39.6986 358.9 33.5951 359.065 28.1992L359.073 27.6797C359.073 13.3865 349.073 3.279 334.796 2.9668L334.113 2.95996V0.959961C341.909 0.959988 348.671 3.68288 353.49 8.45312C358.311 13.2249 361.073 19.9317 361.073 27.6797C361.073 33.0417 358.75 38.9639 355.227 43.542C355.795 43.9219 356.337 44.2916 356.822 44.6152H356.821C363.983 49.3101 368.993 58.5751 368.993 67.2793C368.993 75.5238 366.261 82.6922 361.463 87.8164C356.656 92.9499 349.879 95.9199 342.033 95.9199H298.273V0.959961H334.113V2.95996H300.273V93.9199H342.033L342.716 93.9121C356.993 93.5743 366.993 82.6357 366.993 67.2793ZM346.753 67.2793C346.753 63.8833 345.876 61.3511 344.513 59.7061C343.186 58.1044 341.251 57.1602 338.673 57.1602H320.513V76.3193H338.673V78.3193H318.513V55.1602H338.673C344.913 55.1602 348.753 59.8396 348.753 67.2793C348.753 74.1193 344.913 78.3193 338.673 78.3193V76.3193C341.324 76.3193 343.274 75.4416 344.576 74.0156C345.898 72.5679 346.753 70.335 346.753 67.2793ZM338.953 29.4795C338.953 26.4605 338.145 24.2418 336.905 22.8086C335.695 21.4099 333.905 20.5597 331.474 20.5596H320.513V37.5596H331.813C334.158 37.5047 335.878 36.6958 337.025 35.4277C338.193 34.1378 338.953 32.1669 338.953 29.4795ZM340.953 29.4795C340.953 35.5995 337.473 39.4396 331.833 39.5596H318.513V18.5596H331.474C337.353 18.5598 340.953 22.7598 340.953 29.4795Z" fill="#9C3D3D"/>
<path d="M283.594 2.95996H265.354V93.9199H283.594V2.95996ZM285.594 95.9199H263.354V0.959961H285.594V95.9199Z" fill="#9C3D3D"/>
<path d="M193.594 2.95996H175.354V93.9199H193.594V55.04H230.314V93.9199H248.554V2.95996H230.314V39.4395H193.594V2.95996ZM250.554 95.9199H228.314V57.04H195.594V95.9199H173.354V0.959961H195.594V37.4395H228.314V0.959961H250.554V95.9199Z" fill="#9C3D3D"/>
<path d="M132.011 48.3223L164.577 95.9199H136.657L118.17 67.3379L99.3428 95.9199H71.4258L104.116 48.3223L71.4141 0.959961H99.3408L118.173 29.4355L136.658 1.08496L164.603 0.939453L132.011 48.3223ZM75.2256 2.95996L106.545 48.3193L75.2256 93.9199H98.2656L118.186 63.6797L137.745 93.9199H160.785L129.585 48.3193L160.785 2.95996L137.745 3.08008L118.186 33.0801L98.2656 2.95996H75.2256Z" fill="#9C3D3D"/>
<path d="M64.04 78.3193H20.2402V54.9199H57.6797V39.3193H20.2402V18.5596H64.04V2.95996H2V93.9199H64.04V78.3193ZM66.04 20.5596H22.2402V37.3193H59.6797V56.9199H22.2402V76.3193H66.04V95.9199H0V0.959961H66.04V20.5596Z" fill="#9C3D3D"/>
</svg>
