<svg width="632" height="98" viewBox="0 0 632 98" fill="none" xmlns="http://www.w3.org/2000/svg">
<path d="M580.301 64.7686C583.376 70.4555 586.39 73.6797 589.09 75.4883C591.758 77.2756 594.237 77.7598 596.422 77.7598V79.7598L595.945 79.7529C590.977 79.6082 584.703 77.1125 578.542 65.7197L563.781 74.1201C571.459 86.8778 582.51 94.9844 595.788 95.2344L596.422 95.2402C616.857 95.2401 629.27 84.5421 629.652 69.0986L629.661 68.3604C629.661 38.8404 585.981 43.5198 585.981 27.7998C585.982 22.2799 590.062 17.7197 598.342 17.7197L598.718 17.7266C602.533 17.852 607.837 19.9478 611.863 29.3545L612.262 30.3203L628.222 24.4404C622.197 8.72988 608.964 2.43699 598.822 2.24414L598.342 2.24023C580.222 2.24023 567.861 12.0799 567.861 27.7998C567.861 59.5998 611.542 52.5203 611.542 68.3604L611.529 68.9736C611.273 75.2554 607 79.7597 596.422 79.7598V77.7598C601.628 77.7597 604.874 76.6111 606.792 75.0029C608.651 73.4437 609.542 71.2166 609.542 68.3604C609.542 65.5891 607.739 63.5722 603.817 61.5986C601.887 60.6271 599.597 59.7475 597.046 58.833C594.535 57.9329 591.742 56.9885 588.986 55.9326C583.468 53.8177 577.681 51.1067 573.279 46.7471C568.801 42.3116 565.861 36.2776 565.861 27.7998C565.861 19.3696 569.198 12.4043 575.032 7.58301C580.828 2.79358 588.936 0.240234 598.342 0.240234C609.295 0.240328 623.646 6.9233 630.089 23.7236L630.814 25.6162L611.124 32.8711L610.403 31.0596C608.401 26.024 606.104 23.2172 604.018 21.665C601.952 20.1281 599.957 19.7198 598.342 19.7197C594.562 19.7197 591.989 20.7569 590.387 22.1836C588.8 23.5969 587.981 25.5521 587.981 27.7998C587.981 30.5734 589.824 32.7137 593.764 34.8623C597.734 37.0274 602.918 38.7287 608.581 41.0547C614.083 43.3143 619.844 46.1053 624.227 50.3418C628.687 54.6533 631.661 60.4054 631.661 68.3604C631.661 76.8465 628.298 84.1414 622.104 89.2793C615.943 94.389 607.141 97.2402 596.422 97.2402C581.95 97.2402 570.107 88.5071 562.068 75.1514L561.011 73.3955L579.328 62.9707L580.301 64.7686Z" fill="#9C3D3D"/>
<path d="M497.197 57.2002V3.2002H478.957V57.4404L478.968 58.4697C479.384 79.9997 492.874 94.9999 515.317 95C537.761 95 551.252 79.9998 551.668 58.4697L551.678 57.4404V3.2002H533.438V57.2002L533.434 57.793C533.263 70.1694 527.72 77.96 515.317 77.96V75.96C521.166 75.96 525.066 74.1155 527.557 71.0811C530.105 67.9765 531.437 63.3139 531.438 57.2002V1.2002H553.678V57.4404C553.678 68.8865 550.158 78.8013 543.504 85.8711C536.835 92.9565 527.19 97 515.317 97C503.445 97 493.8 92.9566 487.131 85.8711C480.477 78.8013 476.957 68.8865 476.957 57.4404V1.2002H499.197V57.2002C499.197 63.3139 500.53 67.9765 503.078 71.0811C505.569 74.1155 509.469 75.9599 515.317 75.96V77.96C502.914 77.9599 497.371 70.1693 497.201 57.793L497.197 57.2002Z" fill="#9C3D3D"/>
<path d="M436.854 18.7998V3.2002H370.614V18.7998H394.854V94.1602H413.095V18.7998H436.854ZM438.854 20.7998H415.095V96.1602H392.854V20.7998H368.614V1.2002H438.854V20.7998Z" fill="#9C3D3D"/>
<path d="M303.369 57.2002V3.2002H285.129V57.4404L285.14 58.4697C285.556 79.9997 299.045 94.9999 321.489 95C343.933 95 357.424 79.9998 357.84 58.4697L357.85 57.4404V3.2002H339.609V57.2002L339.605 57.793C339.435 70.1694 333.892 77.96 321.489 77.96V75.96C327.338 75.96 331.238 74.1155 333.729 71.0811C336.277 67.9765 337.609 63.3139 337.609 57.2002V1.2002H359.85V57.4404C359.85 68.8865 356.33 78.8013 349.676 85.8711C343.007 92.9565 333.362 97 321.489 97C309.617 97 299.971 92.9566 293.303 85.8711C286.649 78.8013 283.129 68.8865 283.129 57.4404V1.2002H305.369V57.2002C305.369 63.3139 306.702 67.9765 309.25 71.0811C311.741 74.1155 315.641 75.9599 321.489 75.96V77.96C309.086 77.9599 303.543 70.1693 303.373 57.793L303.369 57.2002Z" fill="#9C3D3D"/>
<path d="M272.735 48.6797C272.735 21.8654 254.247 2.84168 227.915 2.25391L226.655 2.24023C199.656 2.2404 180.575 21.44 180.575 48.6797C180.575 75.494 199.064 94.5184 225.396 95.1064L226.655 95.1201C253.655 95.1201 272.735 75.9197 272.735 48.6797ZM252.496 48.6797C252.496 39.6286 249.934 32.5016 245.531 27.6602C241.149 22.8407 234.756 20.0801 226.655 20.0801C218.554 20.0802 212.163 22.8408 207.78 27.6602C203.378 32.5016 200.815 39.6286 200.815 48.6797C200.815 57.7309 203.378 64.8578 207.78 69.6992C212.163 74.5187 218.554 77.2802 226.655 77.2803V79.2803L225.856 79.2715C209.165 78.911 198.815 67.2255 198.815 48.6797C198.816 29.84 209.496 18.0802 226.655 18.0801L227.455 18.0889C244.147 18.4494 254.496 30.1342 254.496 48.6797L254.488 49.5576C254.161 67.8845 243.547 79.2803 226.655 79.2803V77.2803C234.756 77.2803 241.149 74.5188 245.531 69.6992C249.934 64.8578 252.496 57.7308 252.496 48.6797ZM274.735 48.6797C274.735 62.7783 269.79 74.9112 261.24 83.5244C252.689 92.1385 240.643 97.1201 226.655 97.1201C212.668 97.12 200.622 92.1384 192.071 83.5244C183.521 74.9112 178.575 62.7783 178.575 48.6797C178.575 34.5812 183.521 22.4491 192.071 13.8359C200.622 5.22188 212.668 0.240319 226.655 0.240234C240.643 0.240234 252.689 5.22178 261.24 13.8359C269.79 22.4491 274.735 34.5813 274.735 48.6797Z" fill="#9C3D3D"/>
<path d="M170.555 67.5195C170.555 59.4797 165.874 50.8394 159.274 46.5195C158.195 45.7996 156.995 44.9601 155.795 44.2402C159.748 39.9389 162.461 33.8353 162.627 28.4395L162.635 27.9199C162.635 13.6267 152.634 3.51923 138.357 3.20703L137.675 3.2002V1.2002C145.47 1.20022 152.232 3.92311 157.052 8.69336C161.873 13.4651 164.635 20.1719 164.635 27.9199C164.635 33.282 162.312 39.2042 158.788 43.7822C159.357 44.1621 159.898 44.5319 160.384 44.8555H160.383C167.544 49.5504 172.555 58.8153 172.555 67.5195C172.555 75.764 169.822 82.9324 165.024 88.0566C160.218 93.1901 153.441 96.1601 145.595 96.1602H101.835V1.2002H137.675V3.2002H103.835V94.1602H145.595L146.277 94.1523C160.554 93.8145 170.555 82.8759 170.555 67.5195ZM150.314 67.5195C150.314 64.1235 149.437 61.5914 148.074 59.9463C146.747 58.3446 144.812 57.4004 142.234 57.4004H124.074V76.5596H142.234V78.5596H122.074V55.4004H142.234C148.474 55.4004 152.314 60.0798 152.314 67.5195C152.314 74.3595 148.474 78.5596 142.234 78.5596V76.5596C144.886 76.5596 146.835 75.6819 148.138 74.2559C149.46 72.8082 150.314 70.5752 150.314 67.5195ZM142.515 29.7197C142.515 26.7008 141.707 24.4821 140.467 23.0488C139.257 21.6501 137.467 20.7999 135.035 20.7998H124.074V37.7998H135.375C137.72 37.7449 139.439 36.936 140.587 35.668C141.755 34.378 142.515 32.4071 142.515 29.7197ZM144.515 29.7197C144.515 35.8397 141.035 39.6798 135.395 39.7998H122.074V18.7998H135.035C140.915 18.8 144.515 23.0001 144.515 29.7197Z" fill="#9C3D3D"/>
<path d="M60.3252 1.2002L94.5264 96.1602H70.832L62.6719 73.3604H32.4746L24.0742 96.1602H0.369141L35.4463 1.2002H60.3252ZM36.8398 3.2002L3.24023 94.1602H22.6797L31.0801 71.3604H64.0801L72.2402 94.1602H91.6797L58.9199 3.2002H36.8398ZM58.4404 55.7598H36.8398L47.8799 25.8799L58.4404 55.7598ZM39.7109 53.7598H55.6123L47.8379 31.7637L39.7109 53.7598Z" fill="#9C3D3D"/>
</svg>
