<svg width="209" height="65" viewBox="0 0 209 65" fill="none" xmlns="http://www.w3.org/2000/svg">
<path d="M185.965 5.33194L203.612 40.6374H168.307L185.965 5.33194ZM166.173 5.33194C166.173 24.8349 161.761 40.6374 156.325 40.6374C153.143 40.6374 150.298 35.2374 148.514 26.86C146.718 35.2976 143.898 40.6374 140.715 40.6374C135.279 40.6374 130.868 24.8349 130.868 5.33194H166.173ZM123.43 5.33194V40.6374H88.125V5.33194H123.43ZM63.8849 5.33194C67.3815 5.32241 70.8023 6.35119 73.7137 8.28789C76.625 10.2246 78.8958 12.982 80.2384 16.2107C81.5809 19.4394 81.9346 22.994 81.2548 26.4239C80.575 29.8539 78.8922 33.0048 76.4197 35.4773C73.9471 37.9498 70.7962 39.6326 67.3663 40.3125C63.9363 40.9923 60.3818 40.6385 57.1531 39.296C53.9244 37.9535 51.167 35.6826 49.2303 32.7713C47.2936 29.86 46.2648 26.4392 46.2744 22.9425C46.2871 18.2758 48.1466 13.8039 51.4464 10.504C54.7463 7.20415 59.2182 5.34467 63.8849 5.33194ZM30.713 5.33194C36.1492 5.33194 40.5609 21.1465 40.5609 40.6374H5.2916C5.2916 21.1465 9.70327 5.33194 15.1395 5.33194C18.3217 5.33194 21.1664 10.7441 22.9503 19.1215C24.7464 10.7441 27.579 5.33194 30.7491 5.33194M185.965 0.0403377C184.981 0.039927 184.017 0.313804 183.18 0.831211C182.343 1.34862 181.667 2.08907 181.228 2.9694L169.741 25.9318C170.88 19.2011 171.456 12.3873 171.465 5.56097C171.471 5.48476 171.471 5.40815 171.465 5.33194C171.461 3.93158 170.905 2.5893 169.916 1.59797C168.926 0.606631 167.585 0.0466994 166.185 0.0403377H130.868C129.478 0.0371568 128.144 0.58304 127.155 1.55911C126.16 0.584532 124.823 0.0391878 123.43 0.0403377H88.125C86.7225 0.0435214 85.3785 0.602051 84.3868 1.59373C83.3951 2.58541 82.8366 3.9295 82.8334 5.33194V9.99675C80.5128 6.59471 77.3179 3.88132 73.585 2.14227C69.8521 0.403223 65.7193 -0.297127 61.6218 0.114963C57.5244 0.527053 53.6139 2.03633 50.302 4.48389C46.9902 6.93144 44.3995 10.2267 42.8029 14.0227C40.6332 6.32035 36.9689 0.0403377 30.7491 0.0403377C27.7236 0.0403377 25.12 1.55911 22.9021 4.5605C20.7807 1.55911 18.1771 0.0403377 15.1395 0.0403377C0.73528 0.0403377 0 33.8632 0 40.6374C-3.62739e-06 42.042 0.557117 43.3892 1.54914 44.3834C2.54116 45.3777 3.88707 45.9379 5.2916 45.9411H40.597C42.0037 45.9411 43.3527 45.3823 44.3473 44.3877C45.3419 43.3931 45.9007 42.0441 45.9007 40.6374C45.9007 39.8178 45.9007 38.6004 45.9007 37.1057C48.1144 39.9542 50.9697 42.2395 54.234 43.7753C57.4984 45.3112 61.0793 46.0541 64.6852 45.9437C68.2911 45.8332 71.8199 44.8725 74.9841 43.1398C78.1483 41.407 80.8584 38.9513 82.8936 35.9726V40.6374C82.8936 42.042 83.4508 43.3892 84.4428 44.3834C85.4348 45.3777 86.7807 45.9379 88.1853 45.9411H123.43C124.126 45.9411 124.815 45.8038 125.458 45.5372C126.101 45.2705 126.685 44.8796 127.176 44.387C127.668 43.8943 128.057 43.3096 128.323 42.6662C128.588 42.0228 128.724 41.3334 128.722 40.6374V32.1998C130.904 39.7937 134.556 45.9652 140.715 45.9652C143.741 45.9652 146.345 44.4464 148.514 41.445C150.684 44.4464 153.336 45.9652 156.325 45.9652C157.679 45.9458 159.012 45.624 160.226 45.0234C161.439 44.4228 162.504 43.5585 163.34 42.4937C163.463 42.827 163.62 43.1462 163.81 43.446C164.282 44.2151 164.943 44.8504 165.73 45.2915C166.517 45.7325 167.404 45.9645 168.307 45.9652H203.612C204.514 45.9633 205.401 45.7313 206.189 45.2911C206.976 44.8508 207.638 44.217 208.113 43.4495C208.587 42.682 208.857 41.8062 208.899 40.9049C208.94 40.0037 208.751 39.1068 208.349 38.299L190.702 2.9694C190.262 2.08995 189.586 1.35026 188.749 0.833011C187.913 0.315757 186.949 0.04131 185.965 0.0403377Z" fill="#F9F9F6"/>
<path d="M2.5433 55.7535V64.842H1.39819V53.3789H2.60357L6.85854 61.2982L11.1256 53.3789H12.3309V64.842H11.1256V55.7535L7.37685 62.7206H6.17148L2.5433 55.7535Z" fill="#F9F9F6"/>
<path d="M32.5451 59.1038C32.5451 60.6 31.9507 62.0348 30.8928 63.0927C29.8349 64.1507 28.4 64.745 26.9039 64.745C25.4078 64.745 23.9729 64.1507 22.915 63.0927C21.8571 62.0348 21.2627 60.6 21.2627 59.1038C21.2158 58.3407 21.3279 57.5761 21.5918 56.8586C21.8558 56.1411 22.266 55.4862 22.7963 54.9354C23.3267 54.3847 23.9656 53.9501 24.6727 53.6593C25.3798 53.3684 26.1395 53.2276 26.9039 53.2457C27.6682 53.2276 28.428 53.3684 29.1351 53.6593C29.8422 53.9501 30.4811 54.3847 31.0115 54.9354C31.5418 55.4862 31.952 56.1411 32.216 56.8586C32.4799 57.5761 32.592 58.3407 32.5451 59.1038ZM31.3397 59.1038C31.3849 58.4873 31.3025 57.8681 31.0977 57.2849C30.8928 56.7017 30.5699 56.167 30.1491 55.7142C29.7283 55.2614 29.2187 54.9002 28.652 54.6532C28.0853 54.4062 27.4738 54.2788 26.8557 54.2788C26.2375 54.2788 25.626 54.4062 25.0594 54.6532C24.4927 54.9002 23.983 55.2614 23.5622 55.7142C23.1414 56.167 22.8185 56.7017 22.6137 57.2849C22.4088 57.8681 22.3265 58.4873 22.3717 59.1038C22.3265 59.7203 22.4088 60.3395 22.6137 60.9227C22.8185 61.506 23.1414 62.0407 23.5622 62.4935C23.983 62.9463 24.4927 63.3075 25.0594 63.5545C25.626 63.8014 26.2375 63.9289 26.8557 63.9289C27.4738 63.9289 28.0853 63.8014 28.652 63.5545C29.2187 63.3075 29.7283 62.9463 30.1491 62.4935C30.5699 62.0407 30.8928 61.506 31.0977 60.9227C31.3025 60.3395 31.3849 59.7203 31.3397 59.1038Z" fill="#F9F9F6"/>
<path d="M49.5409 64.842H48.3355V59.4661H42.3086V64.842H41.1033V53.3789H42.3086V58.4415H48.3355V53.3789H49.5409V64.842Z" fill="#F9F9F6"/>
<path d="M69.6828 64.842H68.4774L65.7412 55.4883L63.0412 64.842H61.8358L58.4969 53.3789H59.7023L62.4385 62.8411L65.1506 53.3789H66.3559L69.1042 62.8411L71.8524 53.3789H73.0578L69.6828 64.842Z" fill="#F9F9F6"/>
<path d="M89.6075 64.842H88.4022L87.1968 61.5393H81.9655L80.6757 64.842H79.4703L83.9061 53.3789H85.232L89.6075 64.842ZM86.787 60.5268L84.6293 54.8374L82.4235 60.5268H86.787Z" fill="#F9F9F6"/>
<path d="M110.171 55.7535V64.842H109.038V53.3789H110.171L114.438 61.2982L118.693 53.3789H119.899V64.842H118.693V55.7535L115.005 62.7206H113.799L110.171 55.7535Z" fill="#F9F9F6"/>
<path d="M129.301 60.3822V53.3789H130.506V60.3942C130.506 62.4795 131.603 63.938 133.604 63.938C135.605 63.938 136.702 62.4795 136.702 60.3942V53.3789H137.907V60.3822C137.907 63.0701 136.352 64.9626 133.664 64.9626C130.976 64.9626 129.301 63.0701 129.301 60.3822Z" fill="#F9F9F6"/>
<path d="M150.479 63.9261C152.058 63.9261 153.095 63.1306 153.095 61.8288C153.095 58.731 147.068 60.0328 147.068 56.0189C147.068 54.2108 148.623 53.1742 150.684 53.2103C151.44 53.1889 152.181 53.4221 152.789 53.8723C153.397 54.3226 153.835 54.9639 154.035 55.6934L152.986 56.055C152.847 55.5475 152.545 55.0996 152.127 54.7797C151.709 54.4598 151.198 54.2854 150.672 54.2831C149.298 54.2831 148.261 54.922 148.261 56.1032C148.261 59.1528 154.288 57.8631 154.288 61.9011C154.288 63.7694 152.818 65.0471 150.527 64.9989C149.707 64.9634 148.912 64.7014 148.231 64.2418C147.55 63.7823 147.01 63.1431 146.67 62.3953L147.647 61.8649C147.895 62.4281 148.287 62.9155 148.785 63.2775C149.283 63.6396 149.867 63.8634 150.479 63.9261Z" fill="#F9F9F6"/>
<path d="M170.356 54.3914H164.401V58.4294H169.548V59.442H164.401V63.8295H170.356V64.842H163.256V53.3789H170.356V54.3914Z" fill="#F9F9F6"/>
<path d="M179.492 60.3822V53.3789H180.698V60.3942C180.698 62.4795 181.795 63.938 183.796 63.938C185.797 63.938 186.833 62.4795 186.833 60.3942V53.3789H188.039V60.3822C188.039 63.0701 186.484 64.9626 183.796 64.9626C181.108 64.9626 179.492 63.0701 179.492 60.3822Z" fill="#F9F9F6"/>
<path d="M198.489 55.7535V64.842H197.344V53.3789H198.489L202.756 61.2982L207.011 53.3789H208.216V64.842H207.071V55.7535L203.323 62.7206H202.117L198.489 55.7535Z" fill="#F9F9F6"/>
</svg>
