<svg width="40" height="40" viewBox="0 0 40 40" fill="none" xmlns="http://www.w3.org/2000/svg">
<path d="M21.6683 33.2298C28.2455 32.4097 33.335 26.799 33.335 19.9997C33.335 12.6359 27.3655 6.66634 20.0017 6.66634C12.6378 6.66634 6.66829 12.6359 6.66829 19.9997C6.66829 26.799 11.7578 32.4097 18.335 33.2298V23.333H15.0016V19.9997H18.335V17.2427C18.335 15.0139 18.567 14.2057 19.0028 13.3909C19.4385 12.5761 20.078 11.9366 20.8928 11.5008C21.5307 11.1597 22.3218 10.9539 23.7045 10.8656C24.2532 10.8305 24.9635 10.8752 25.835 10.9997V14.1663H25.0017C23.4728 14.1663 22.842 14.2385 22.4648 14.4402C22.231 14.5653 22.0673 14.729 21.9422 14.9629C21.7405 15.34 21.6683 15.7139 21.6683 17.2427V19.9997H25.835L25.0017 23.333H21.6683V33.2298ZM20.0017 36.6663C10.7969 36.6663 3.33496 29.2043 3.33496 19.9997C3.33496 10.7949 10.7969 3.33301 20.0017 3.33301C29.2063 3.33301 36.6683 10.7949 36.6683 19.9997C36.6683 29.2043 29.2063 36.6663 20.0017 36.6663Z" fill="#F9F9F6"/>
</svg>
