<svg width="40" height="40" viewBox="0 0 40 40" fill="none" xmlns="http://www.w3.org/2000/svg">
<path d="M20.0017 14.9997C17.2393 14.9997 15.0016 17.2382 15.0016 19.9997C15.0016 22.7618 17.2402 24.9997 20.0017 24.9997C22.7638 24.9997 25.0017 22.7612 25.0017 19.9997C25.0017 17.2375 22.7632 14.9997 20.0017 14.9997ZM20.0017 11.6663C24.6023 11.6663 28.335 15.3948 28.335 19.9997C28.335 24.6005 24.6065 28.333 20.0017 28.333C15.4008 28.333 11.6683 24.6045 11.6683 19.9997C11.6683 15.3989 15.3968 11.6663 20.0017 11.6663ZM30.835 11.2483C30.835 12.3984 29.9003 13.3316 28.7517 13.3316C27.6015 13.3316 26.6683 12.397 26.6683 11.2483C26.6683 10.0995 27.6028 9.16634 28.7517 9.16634C29.8988 9.16489 30.835 10.0995 30.835 11.2483ZM20.0017 6.66634C15.8775 6.66634 15.2053 6.67726 13.2871 6.76267C11.9802 6.82402 11.1042 6.99979 10.2903 7.31579C9.56693 7.59632 9.04514 7.93131 8.48919 8.48726C7.93111 9.04534 7.59673 9.56572 7.31733 10.2894C7.00059 11.1052 6.82488 11.9799 6.76463 13.2849C6.67838 15.125 6.66829 15.7681 6.66829 19.9997C6.66829 24.1238 6.67921 24.796 6.76461 26.714C6.82599 28.0203 7.00199 28.8977 7.31723 29.7097C7.59849 30.434 7.93416 30.957 8.48743 31.5103C9.04771 32.0698 9.56964 32.4053 10.2864 32.682C11.1103 33.0005 11.9858 33.1765 13.2869 33.2367C15.127 33.3228 15.77 33.333 20.0017 33.333C24.1258 33.333 24.798 33.322 26.716 33.2367C28.0195 33.1755 28.8975 32.999 29.7117 32.684C30.434 32.4035 30.9587 32.0667 31.5123 31.5138C32.0727 30.9527 32.4075 30.432 32.6845 29.7135C33.0022 28.8927 33.1785 28.016 33.2387 26.7145C33.3248 24.8743 33.335 24.2312 33.335 19.9997C33.335 15.8755 33.324 15.2034 33.2387 13.2853C33.1773 11.9814 33.0008 11.1022 32.6855 10.2883C32.4057 9.56697 32.0695 9.04359 31.514 8.48726C30.955 7.92826 30.436 7.59456 29.7118 7.31537C28.8967 6.99891 28.0207 6.82294 26.7163 6.76269C24.8763 6.67642 24.2332 6.66634 20.0017 6.66634ZM20.0017 3.33301C24.5293 3.33301 25.0947 3.34967 26.8725 3.43301C28.646 3.51496 29.8558 3.79551 30.9183 4.20801C32.0168 4.63162 32.9447 5.20384 33.871 6.13022C34.796 7.05662 35.3683 7.98717 35.7933 9.08301C36.2043 10.1441 36.485 11.3552 36.5683 13.1288C36.6475 14.9066 36.6683 15.4719 36.6683 19.9997C36.6683 24.5275 36.6517 25.0927 36.5683 26.8705C36.4863 28.6442 36.2043 29.8538 35.7933 30.9163C35.3697 32.015 34.796 32.9427 33.871 33.8692C32.9447 34.7942 32.0127 35.3663 30.9183 35.7913C29.8558 36.2025 28.646 36.483 26.8725 36.5663C25.0947 36.6455 24.5293 36.6663 20.0017 36.6663C15.4738 36.6663 14.9086 36.6497 13.1308 36.5663C11.3572 36.4843 10.1488 36.2025 9.08496 35.7913C7.98773 35.3677 7.05856 34.7942 6.13218 33.8692C5.20579 32.9427 4.63496 32.0108 4.20996 30.9163C3.79746 29.8538 3.51829 28.6442 3.43496 26.8705C3.35579 25.0927 3.33496 24.5275 3.33496 19.9997C3.33496 15.4719 3.35163 14.9066 3.43496 13.1288C3.51689 11.3538 3.79746 10.1455 4.20996 9.08301C4.63356 7.98579 5.20579 7.05662 6.13218 6.13022C7.05856 5.20384 7.98913 4.63301 9.08496 4.20801C10.1475 3.79551 11.3558 3.51634 13.1308 3.43301C14.9086 3.35384 15.4738 3.33301 20.0017 3.33301Z" fill="#F9F9F6"/>
</svg>
