<svg width="40" height="40" viewBox="0 0 40 40" fill="none" xmlns="http://www.w3.org/2000/svg">
<path d="M25.5832 9.25033C22.9469 9.25033 20.7977 11.3637 20.7507 13.9945L20.7039 16.6196C20.694 17.1717 20.2384 17.6114 19.6862 17.6016C19.6469 17.6009 19.6077 17.5979 19.5689 17.5926L16.9675 17.2379C13.545 16.7711 10.2647 15.1958 7.11789 12.5738C6.12127 18.0899 8.06669 21.9122 12.7557 24.8602L15.6674 26.6906C16.1349 26.9846 16.2757 27.6019 15.9817 28.0694C15.9144 28.1766 15.8273 28.2701 15.7251 28.3447L13.0723 30.2829C14.6496 30.3819 16.149 30.3127 17.3917 30.0647C25.2544 28.4957 30.4829 22.5786 30.4829 12.8187C30.4829 12.0219 28.7957 9.25033 25.5832 9.25033ZM17.4179 13.9351C17.4972 9.49331 21.1225 5.91699 25.5832 5.91699C27.8554 5.91699 29.9109 6.84496 31.3914 8.34258C32.577 8.33366 33.5857 8.63343 35.8392 7.26636C35.2822 10.0003 35.0057 11.1869 33.8162 12.8187C33.8162 25.5546 25.9877 31.7484 18.044 33.3336C12.5979 34.4206 4.67746 32.6361 2.40887 30.2647C3.56459 30.1759 8.26549 29.6702 10.9816 27.6822C8.68326 26.1647 -0.464361 20.7804 5.54622 6.31094C8.36867 9.60536 11.23 11.8478 14.1301 13.0383C16.0592 13.8302 16.533 13.8144 17.4179 13.9351Z" fill="#F9F9F6"/>
</svg>
