<svg width="40" height="40" viewBox="0 0 40 40" fill="none" xmlns="http://www.w3.org/2000/svg">
<path d="M32.6782 11.6584C32.5512 11.1619 32.192 10.7873 31.7807 10.6718C31.0498 10.468 27.5017 10.0003 20.0017 10.0003C12.5016 10.0003 8.95419 10.4682 8.22041 10.6724C7.81293 10.7857 7.45383 11.1602 7.32516 11.6584C7.14383 12.3657 6.66829 15.3269 6.66829 20.0003C6.66829 24.6737 7.14383 27.635 7.32566 28.3443C7.45209 28.8388 7.81126 29.2133 8.22084 29.3283C8.95419 29.5325 12.5016 30.0003 20.0017 30.0003C27.5017 30.0003 31.0498 29.5327 31.7828 29.3283C32.1903 29.215 32.5495 28.8405 32.6782 28.3423C32.8595 27.635 33.335 24.667 33.335 20.0003C33.335 15.3337 32.8595 12.3657 32.6782 11.6584ZM35.907 10.8306C36.6683 13.8003 36.6683 20.0003 36.6683 20.0003C36.6683 20.0003 36.6683 26.2003 35.907 29.17C35.4828 30.8125 34.245 32.1033 32.676 32.5397C29.8285 33.3337 20.0017 33.3337 20.0017 33.3337C20.0017 33.3337 10.1806 33.3337 7.32728 32.5397C5.75243 32.0973 4.51464 30.8063 4.09623 29.17C3.33496 26.2003 3.33496 20.0003 3.33496 20.0003C3.33496 20.0003 3.33496 13.8003 4.09623 10.8306C4.52044 9.18821 5.75824 7.89729 7.32728 7.46093C10.1806 6.66699 20.0017 6.66699 20.0017 6.66699C20.0017 6.66699 29.8285 6.66699 32.676 7.46093C34.2508 7.90336 35.4887 9.19426 35.907 10.8306ZM16.6683 25.8337V14.167L26.6683 20.0003L16.6683 25.8337Z" fill="#F9F9F6"/>
</svg>
