<svg width="308" height="94" viewBox="0 0 308 94" fill="none" xmlns="http://www.w3.org/2000/svg">
<path d="M307.643 1.86816V17.4682H283.883V92.8282H265.643V17.4682H241.403V1.86816L307.643 1.86816Z" fill="#9C3D3D"/>
<path d="M208.884 1.86816H227.124V92.8282H208.884V1.86816Z" fill="#9C3D3D"/>
<path d="M142.885 64.3882C149.245 76.1482 155.725 78.4282 160.765 78.4282C171.685 78.4282 175.885 73.6282 175.885 67.0282C175.885 51.1882 132.205 58.2682 132.205 26.4682C132.205 10.7482 144.565 0.908203 162.685 0.908203C172.885 0.908203 186.445 7.1482 192.565 23.1082L176.605 28.9882C172.405 18.4282 166.645 16.3882 162.685 16.3882C154.405 16.3882 150.325 20.9482 150.325 26.4682C150.325 42.1882 194.005 37.5082 194.005 67.0282C194.005 82.8682 181.525 93.9082 160.765 93.9082C147.205 93.9082 135.925 85.7482 128.125 72.7882L142.885 64.3882Z" fill="#9C3D3D"/>
<path d="M97.4391 1.86816H115.679V92.8282H97.4391V1.86816Z" fill="#9C3D3D"/>
<path d="M85.2 1.86816L55.08 92.8282H33L0.23999 1.86816L19.68 1.86816L43.8 69.0682L66 1.86816H85.2Z" fill="#9C3D3D"/>
</svg>
