<svg width="1919" height="676" viewBox="0 0 1919 676" fill="none" xmlns="http://www.w3.org/2000/svg">
<g opacity="0.4" clip-path="url(#clip0_7970_697)">
<g opacity="0.5">
<path d="M-24.5 229.666C666.5 82.3303 847.5 177.06 1053.5 332.015C1144.11 400.184 1210.5 481.611 1307.5 536.186C1533.8 663.515 1807.41 627.052 1972.5 428.876" stroke="#9C3D3D" stroke-width="1.22" stroke-miterlimit="10"/>
<path d="M-77.94 216.321C620.5 65.4659 806.54 173.713 1017.17 334.049C1106.62 401.949 1183.71 488.391 1286.28 542.439C1520.2 666.712 1807.05 613.6 1976.06 411.419" stroke="#A6504E" stroke-width="1.25" stroke-miterlimit="10"/>
<path d="M-131.39 202.9C574.5 48.612 765.53 170.366 980.83 336.083C1069.13 403.724 1157.05 494.87 1265.06 548.692C1506.89 669.23 1806.69 600.147 1979.61 393.963" stroke="#B0635F" stroke-width="1.27" stroke-miterlimit="10"/>
<path d="M-184.83 189.523C528.5 31.7481 724.53 167.008 944.5 338.118C1031.64 405.49 1130.28 501.576 1243.83 554.946C1493.34 672.255 1806.33 586.694 1983.17 376.496" stroke="#BA766F" stroke-width="1.3" stroke-miterlimit="10"/>
<path d="M-238.28 176.145C482.5 14.883 683.52 163.661 908.17 340.151C994.17 407.265 1103.49 508.323 1222.61 561.198C1479.74 675.343 1805.98 573.241 1986.72 359.039" stroke="#C48980" stroke-width="1.33" stroke-miterlimit="10"/>
<path d="M-291.72 162.757C436.5 -1.97074 642.52 160.357 871.83 342.175C956.67 409.03 1076.68 515.114 1201.39 567.451C1466.11 678.561 1805.62 559.788 1990.28 341.583" stroke="#CD9C91" stroke-width="1.36" stroke-miterlimit="10"/>
<path d="M-345.17 149.379C390.5 -18.8353 601.51 156.913 835.5 344.176C919.18 410.795 1049.87 521.969 1180.17 573.704C1452.45 681.865 1805.26 546.335 1993.83 324.126" stroke="#D7AFA2" stroke-width="1.38" stroke-miterlimit="10"/>
<path d="M-398.61 136.003C344.5 -35.6986 560.51 153.61 799.17 346.244C881.69 412.572 1022.94 529.106 1158.94 579.958C1438.57 685.848 1804.94 532.884 1997.39 306.66" stroke="#E1C2B2" stroke-width="1.41" stroke-miterlimit="10"/>
<path d="M-452.06 122.614C298.5 -52.553 519.5 150.251 762.83 348.277C844.21 414.347 996.15 535.896 1137.72 586.21C1424.97 689.033 1804.55 519.43 2000.94 289.171" stroke="#EBD5C3" stroke-width="1.44" stroke-miterlimit="10"/>
<path d="M-505.5 109.236C252.5 -69.4176 478.5 146.904 726.5 350.311C806.72 416.112 969.35 542.676 1116.5 592.463C1411.36 692.218 1804.19 505.966 2004.5 271.747" stroke="#F5E8D4" stroke-width="1.46" stroke-miterlimit="10"/>
</g>
</g>
<defs>
<clipPath id="clip0_7970_697">
<rect width="1920" height="675.871" fill="white" transform="translate(-1)"/>
</clipPath>
</defs>
</svg>
