<svg width="174" height="54" viewBox="0 0 174 54" fill="none" xmlns="http://www.w3.org/2000/svg">
<path d="M154.161 4.41324L168.774 33.6355H139.537L154.161 4.41324ZM137.77 4.41324C137.77 20.5558 134.117 33.6355 129.615 33.6355C126.98 33.6355 124.624 29.1659 123.146 22.2319C121.659 29.2158 119.323 33.6355 116.688 33.6355C112.186 33.6355 108.533 20.5558 108.533 4.41324H137.77ZM102.374 4.41324V33.6355H73.1362V4.41324H102.374ZM53.0623 4.41324C55.958 4.40535 58.7908 5.25686 61.2018 6.85986C63.6128 8.46286 65.4933 10.7452 66.6051 13.4176C67.7169 16.0899 68.0098 19.032 67.4468 21.871C66.8839 24.71 65.4903 27.318 63.4427 29.3645C61.3951 31.411 58.7858 32.8038 55.9453 33.3665C53.1049 33.9292 50.1612 33.6364 47.4875 32.5252C44.8137 31.414 42.5302 29.5344 40.9264 27.1247C39.3225 24.715 38.4706 21.8836 38.4785 18.9895C38.489 15.1268 40.0289 11.4254 42.7616 8.69415C45.4943 5.96285 49.1977 4.42377 53.0623 4.41324ZM25.5916 4.41324C30.0935 4.41324 33.747 17.5029 33.747 33.6355H4.53942C4.53942 17.5029 8.19286 4.41324 12.6948 4.41324C15.33 4.41324 17.6858 8.89285 19.1632 15.8268C20.6505 8.89285 22.9963 4.41324 25.6216 4.41324M154.161 0.0333874C153.346 0.0330475 152.547 0.259734 151.854 0.687992C151.161 1.11625 150.602 1.72912 150.238 2.45777L140.725 21.4637C141.668 15.8927 142.145 10.253 142.152 4.6028C142.158 4.53972 142.158 4.47632 142.152 4.41324C142.15 3.25416 141.689 2.14316 140.869 1.32263C140.05 0.502107 138.94 0.038653 137.78 0.0333874H108.533C107.382 0.0307546 106.277 0.482581 105.458 1.29047C104.634 0.483816 103.527 0.0324357 102.374 0.0333874H73.1362C71.9748 0.0360226 70.8618 0.498316 70.0405 1.31913C69.2193 2.13994 68.7567 3.25244 68.7541 4.41324V8.27429C66.8324 5.45843 64.1865 3.21255 61.0952 1.77315C58.0039 0.333747 54.5814 -0.245931 51.1882 0.0951547C47.795 0.43624 44.5565 1.68547 41.8139 3.7113C39.0713 5.73714 36.9259 8.46462 35.6036 11.6066C33.8069 5.23134 30.7723 0.0333874 25.6216 0.0333874C23.1161 0.0333874 20.9599 1.29047 19.1232 3.77472C17.3664 1.29047 15.2103 0.0333874 12.6948 0.0333874C0.766195 0.0333874 0.157288 28.0285 0.157288 33.6355C0.157285 34.798 0.618653 35.9131 1.44018 36.7361C2.2617 37.559 3.37629 38.0227 4.53942 38.0253H33.7769C34.9418 38.0253 36.0589 37.5628 36.8826 36.7396C37.7063 35.9163 38.169 34.7998 38.169 33.6355C38.169 32.9571 38.169 31.9494 38.169 30.7123C40.0023 33.07 42.3668 34.9615 45.0701 36.2327C47.7734 37.5039 50.7389 38.1189 53.7251 38.0275C56.7112 37.9361 59.6335 37.1409 62.2539 35.7067C64.8743 34.2725 67.1186 32.2399 68.804 29.7745V33.6355C68.804 34.798 69.2654 35.9131 70.0869 36.7361C70.9084 37.559 72.023 38.0227 73.1861 38.0253H102.374C102.95 38.0253 103.521 37.9117 104.053 37.691C104.585 37.4703 105.069 37.1467 105.476 36.739C105.883 36.3312 106.206 35.8472 106.425 35.3147C106.645 34.7821 106.757 34.2115 106.756 33.6355V26.6517C108.563 32.9371 111.587 38.0453 116.688 38.0453C119.194 38.0453 121.35 36.7882 123.146 34.304C124.943 36.7882 127.139 38.0453 129.615 38.0453C130.736 38.0292 131.84 37.7629 132.845 37.2657C133.85 36.7686 134.731 36.0532 135.424 35.172C135.526 35.4478 135.656 35.712 135.814 35.9601C136.204 36.5967 136.752 37.1226 137.403 37.4876C138.055 37.8527 138.79 38.0447 139.537 38.0453H168.774C169.522 38.0437 170.256 37.8517 170.908 37.4873C171.56 37.1229 172.109 36.5983 172.502 35.9631C172.894 35.3278 173.118 34.6029 173.153 33.8569C173.187 33.111 173.03 32.3686 172.697 31.7L158.084 2.45777C157.719 1.72984 157.159 1.11761 156.466 0.689481C155.773 0.261351 154.975 0.0341922 154.161 0.0333874Z" fill="#F9F9F6"/>
<path d="M2.26348 46.1465V53.6691H1.31519V44.1811H2.31339L5.83707 50.7359L9.37072 44.1811H10.3689V53.6691H9.37072V46.1465L6.26629 51.9132H5.26809L2.26348 46.1465Z" fill="#F9F9F6"/>
<path d="M27.1089 48.9201C27.1089 50.1585 26.6167 51.3461 25.7406 52.2217C24.8646 53.0974 23.6763 53.5893 22.4373 53.5893C21.1983 53.5893 20.0101 53.0974 19.134 52.2217C18.2579 51.3461 17.7657 50.1585 17.7657 48.9201C17.7268 48.2885 17.8196 47.6557 18.0382 47.0617C18.2569 46.4678 18.5965 45.9258 19.0357 45.4699C19.4749 45.0141 20.004 44.6544 20.5896 44.4137C21.1751 44.1729 21.8043 44.0563 22.4373 44.0714C23.0703 44.0563 23.6995 44.1729 24.2851 44.4137C24.8706 44.6544 25.3997 45.0141 25.8389 45.4699C26.2781 45.9258 26.6178 46.4678 26.8364 47.0617C27.055 47.6557 27.1478 48.2885 27.1089 48.9201ZM26.1107 48.9201C26.1482 48.4098 26.08 47.8973 25.9103 47.4146C25.7407 46.9319 25.4733 46.4893 25.1248 46.1145C24.7763 45.7397 24.3543 45.4408 23.885 45.2363C23.4157 45.0319 22.9093 44.9264 22.3974 44.9264C21.8855 44.9264 21.3791 45.0319 20.9098 45.2363C20.4405 45.4408 20.0185 45.7397 19.67 46.1145C19.3215 46.4893 19.0541 46.9319 18.8845 47.4146C18.7148 47.8973 18.6466 48.4098 18.6841 48.9201C18.6466 49.4304 18.7148 49.9429 18.8845 50.4256C19.0541 50.9084 19.3215 51.3509 19.67 51.7257C20.0185 52.1005 20.4405 52.3995 20.9098 52.6039C21.3791 52.8083 21.8855 52.9138 22.3974 52.9138C22.9093 52.9138 23.4157 52.8083 23.885 52.6039C24.3543 52.3995 24.7763 52.1005 25.1248 51.7257C25.4733 51.3509 25.7407 50.9084 25.9103 50.4256C26.08 49.9429 26.1482 49.4304 26.1107 48.9201Z" fill="#F9F9F6"/>
<path d="M41.1838 53.6691H40.1856V49.2194H35.1945V53.6691H34.1963V44.1811H35.1945V48.3714H40.1856V44.1811H41.1838V53.6691Z" fill="#F9F9F6"/>
<path d="M57.8637 53.6691H56.8655L54.5996 45.927L52.3636 53.6691H51.3654L48.6004 44.1811H49.5986L51.8645 52.0129L54.1105 44.1811H55.1087L57.3846 52.0129L59.6605 44.1811H60.6587L57.8637 53.6691Z" fill="#F9F9F6"/>
<path d="M74.364 53.6691H73.3658L72.3676 50.9354H68.0354L66.9673 53.6691H65.9691L69.6425 44.1811H70.7405L74.364 53.6691ZM72.0282 50.0974L70.2414 45.3883L68.4147 50.0974H72.0282Z" fill="#F9F9F6"/>
<path d="M91.3935 46.1465V53.6691H90.4551V44.1811H91.3935L94.9271 50.7359L98.4508 44.1811H99.449V53.6691H98.4508V46.1465L95.3963 51.9132H94.3981L91.3935 46.1465Z" fill="#F9F9F6"/>
<path d="M107.235 49.9777V44.1811H108.233V49.9876C108.233 51.7136 109.142 52.9208 110.799 52.9208C112.456 52.9208 113.364 51.7136 113.364 49.9876V44.1811H114.362V49.9777C114.362 52.2025 113.075 53.7689 110.849 53.7689C108.623 53.7689 107.235 52.2025 107.235 49.9777Z" fill="#F9F9F6"/>
<path d="M124.774 52.9108C126.081 52.9108 126.94 52.2524 126.94 51.1749C126.94 48.6108 121.949 49.6883 121.949 46.366C121.949 44.8695 123.236 44.0115 124.943 44.0414C125.569 44.0237 126.183 44.2166 126.686 44.5893C127.19 44.962 127.553 45.4928 127.718 46.0966L126.85 46.3959C126.734 45.9759 126.484 45.6052 126.138 45.3404C125.792 45.0755 125.369 44.9312 124.933 44.9293C123.795 44.9293 122.937 45.4581 122.937 46.4359C122.937 48.96 127.928 47.8925 127.928 51.2347C127.928 52.7811 126.71 53.8387 124.813 53.7988C124.134 53.7694 123.476 53.5525 122.912 53.1721C122.348 52.7918 121.901 52.2628 121.619 51.6438L122.428 51.2048C122.633 51.6709 122.958 52.0743 123.37 52.374C123.782 52.6737 124.267 52.8589 124.774 52.9108Z" fill="#F9F9F6"/>
<path d="M141.234 45.0191H136.303V48.3614H140.565V49.1995H136.303V52.831H141.234V53.6691H135.355V44.1811H141.234V45.0191Z" fill="#F9F9F6"/>
<path d="M148.8 49.9777V44.1811H149.799V49.9876C149.799 51.7136 150.707 52.9208 152.364 52.9208C154.021 52.9208 154.879 51.7136 154.879 49.9876V44.1811H155.878V49.9777C155.878 52.2025 154.59 53.7689 152.364 53.7689C150.138 53.7689 148.8 52.2025 148.8 49.9777Z" fill="#F9F9F6"/>
<path d="M164.532 46.1465V53.6691H163.584V44.1811H164.532L168.066 50.7359L171.589 44.1811H172.588V53.6691H171.639V46.1465L168.535 51.9132H167.537L164.532 46.1465Z" fill="#F9F9F6"/>
</svg>
