<svg width="408" height="96" viewBox="0 0 408 96" fill="none" xmlns="http://www.w3.org/2000/svg">
<path d="M405.339 2.2002H387.099V62.9199L348.578 2.2002H327.938V93.1602H346.179V32.5596L384.698 93.1602H405.339V2.2002ZM407.339 95.1602H383.6L348.179 39.4346V95.1602H325.938V0.200195H349.678L385.099 56.0342V0.200195H407.339V95.1602Z" fill="#9C3D3D"/>
<path d="M310.783 32.0801C310.783 14.125 299.504 2.56572 283.355 2.20898L282.583 2.2002V0.200195C291.347 0.200195 298.939 3.29042 304.336 8.91504C309.728 14.5348 312.783 22.5293 312.783 32.0801C312.783 37.6521 312.042 43.0082 309.284 48.0674C306.757 52.7024 302.632 56.9132 296.212 60.8203L318.813 95.1602H292.185L272.625 65.4004H263.343V95.1602H241.104V0.200195H282.583V2.2002H243.104V93.1602H261.343V63.4004H273.703L293.263 93.1602H315.104L293.383 60.1602C307.449 52.2552 310.592 43.4492 310.774 33.0879L310.783 32.0801ZM290.543 32.7998C290.543 28.1701 289.292 24.98 287.338 22.9531C285.392 20.9351 282.489 19.7998 278.623 19.7998H263.343V45.7998H278.623V47.7998H261.343V17.7998H278.623C287.143 17.7998 292.543 22.8399 292.543 32.7998C292.543 42.7598 287.143 47.7998 278.623 47.7998V45.7998C282.489 45.7998 285.392 44.6647 287.338 42.6465C289.292 40.6196 290.543 37.4296 290.543 32.7998Z" fill="#9C3D3D"/>
<path d="M199.474 0.200195L233.675 95.1602H209.98L201.82 72.3604H171.623L163.223 95.1602H139.518L174.595 0.200195H199.474ZM175.988 2.2002L142.389 93.1602H161.828L170.229 70.3604H203.229L211.389 93.1602H230.828L198.068 2.2002H175.988ZM197.589 54.7598H175.988L187.028 24.8799L197.589 54.7598ZM178.859 52.7598H194.761L186.986 30.7637L178.859 52.7598Z" fill="#9C3D3D"/>
<path d="M131.438 77.5596H87.6377V54.1602H125.077V38.5596H87.6377V17.7998H131.438V2.2002H69.3975V93.1602H131.438V77.5596ZM133.438 19.7998H89.6377V36.5596H127.077V56.1602H89.6377V75.5596H133.438V95.1602H67.3975V0.200195H133.438V19.7998Z" fill="#9C3D3D"/>
<path d="M58.9199 77.5596H20.4004V2.2002H2.16016V93.1602H58.9199V77.5596ZM22.4004 75.5596H60.9199V95.1602H0.160156V0.200195H22.4004V75.5596Z" fill="#9C3D3D"/>
</svg>
