<svg width="827" height="97" viewBox="0 0 827 97" fill="none" xmlns="http://www.w3.org/2000/svg">
<path d="M824.027 33.5596C824.027 15.841 811.352 3.35467 793.215 2.96875L792.347 2.95996V0.959961C802.105 0.959961 810.542 4.27147 816.551 10.0703C822.564 15.8743 826.027 24.0572 826.027 33.5596C826.027 43.062 822.564 51.2448 816.551 57.0488C810.542 62.8478 802.106 66.1602 792.347 66.1602H776.106V95.9199H753.867V0.959961H792.347V2.95996H755.867V93.9199H774.106V64.1602H792.347L793.215 64.1504C811.065 63.7706 823.623 51.6718 824.018 34.3994L824.027 33.5596ZM803.787 33.5596C803.787 29.6206 802.497 26.3782 800.409 24.1387C798.331 21.9097 795.36 20.5596 791.747 20.5596H776.106V46.5596H791.747V48.5596H774.106V18.5596H791.747C800.027 18.5596 805.787 24.7997 805.787 33.5596L805.782 33.9688C805.606 42.5133 799.898 48.5595 791.747 48.5596V46.5596C795.36 46.5595 798.331 45.2103 800.409 42.9814C802.497 40.7419 803.787 37.4987 803.787 33.5596Z" fill="#9C3D3D"/>
<path d="M739.188 2.95996H720.948V93.9199H739.188V2.95996ZM741.188 95.9199H718.948V0.959961H741.188V95.9199Z" fill="#9C3D3D"/>
<path d="M649.188 2.95996H630.948V93.9199H649.188V55.04H685.908V93.9199H704.147V2.95996H685.908V39.4395H649.188V2.95996ZM706.147 95.9199H683.908V57.04H651.188V95.9199H628.948V0.959961H651.188V37.4395H683.908V0.959961H706.147V95.9199Z" fill="#9C3D3D"/>
<path d="M564.364 64.5283C567.44 70.2153 570.454 73.4395 573.153 75.248C575.821 77.0354 578.3 77.5195 580.485 77.5195V79.5195L580.009 79.5127C575.041 79.368 568.767 76.8723 562.605 65.4795L547.845 73.8799C555.523 86.6375 566.574 94.7441 579.852 94.9941L580.485 95C600.921 94.9999 613.333 84.3018 613.716 68.8584L613.725 68.1201C613.725 38.6001 570.045 43.2796 570.045 27.5596C570.045 22.0397 574.125 17.4795 582.405 17.4795L582.781 17.4863C586.596 17.6117 591.901 19.7076 595.927 29.1143L596.325 30.0801L612.285 24.2002C606.261 8.48964 593.027 2.19675 582.886 2.00391L582.405 2C564.285 2 551.925 11.8397 551.925 27.5596C551.925 59.3596 595.605 52.2801 595.605 68.1201L595.593 68.7334C595.336 75.0151 591.064 79.5194 580.485 79.5195V77.5195C585.692 77.5195 588.938 76.3709 590.855 74.7627C592.715 73.2035 593.605 70.9764 593.605 68.1201C593.605 65.3489 591.803 63.332 587.881 61.3584C585.95 60.3869 583.66 59.5072 581.109 58.5928C578.599 57.6926 575.805 56.7483 573.05 55.6924C567.531 53.5774 561.745 50.8665 557.343 46.5068C552.864 42.0714 549.925 36.0373 549.925 27.5596C549.925 19.1294 553.261 12.164 559.096 7.34277C564.892 2.55335 573 0 582.405 0C593.359 9.39664e-05 607.71 6.68306 614.152 23.4834L614.878 25.376L595.188 32.6309L594.467 30.8193C592.464 25.7838 590.168 22.9769 588.081 21.4248C586.015 19.8879 584.02 19.4795 582.405 19.4795C578.626 19.4795 576.052 20.5167 574.45 21.9434C572.863 23.3566 572.045 25.3119 572.045 27.5596C572.045 30.3332 573.887 32.4734 577.827 34.6221C581.797 36.7871 586.981 38.4884 592.645 40.8145C598.146 43.0741 603.907 45.865 608.29 50.1016C612.751 54.413 615.725 60.1652 615.725 68.1201C615.725 76.6063 612.362 83.9012 606.167 89.0391C600.006 94.1487 591.205 96.9999 580.485 97C566.014 97 554.17 88.2669 546.132 74.9111L545.074 73.1553L563.392 62.7305L564.364 64.5283Z" fill="#9C3D3D"/>
<path d="M537.026 32.8398C537.026 14.8847 525.747 3.32548 509.599 2.96875L508.826 2.95996V0.959961C517.59 0.959961 525.182 4.05018 530.579 9.6748C535.971 15.2946 539.026 23.289 539.026 32.8398C539.026 38.4118 538.285 43.7679 535.527 48.8271C533.001 53.4621 528.875 57.673 522.455 61.5801L545.057 95.9199H518.428L498.868 66.1602H489.586V95.9199H467.347V0.959961H508.826V2.95996H469.347V93.9199H487.586V64.1602H499.946L519.506 93.9199H541.347L519.626 60.9199C533.692 53.015 536.835 44.209 537.018 33.8477L537.026 32.8398ZM516.786 33.5596C516.786 28.9299 515.535 25.7398 513.581 23.7129C511.635 21.6948 508.732 20.5596 504.866 20.5596H489.586V46.5596H504.866V48.5596H487.586V18.5596H504.866C513.386 18.5596 518.786 23.5997 518.786 33.5596C518.786 43.5196 513.386 48.5596 504.866 48.5596V46.5596C508.732 46.5596 511.635 45.4244 513.581 43.4062C515.535 41.3794 516.786 38.1894 516.786 33.5596Z" fill="#9C3D3D"/>
<path d="M453.892 78.3193H410.092V54.9199H447.531V39.3193H410.092V18.5596H453.892V2.95996H391.852V93.9199H453.892V78.3193ZM455.892 20.5596H412.092V37.3193H449.531V56.9199H412.092V76.3193H455.892V95.9199H389.852V0.959961H455.892V20.5596Z" fill="#9C3D3D"/>
<path d="M380.087 67.2793C380.087 59.2394 375.407 50.5992 368.807 46.2793C367.727 45.5594 366.527 44.7199 365.327 44C369.28 39.6986 371.994 33.5951 372.159 28.1992L372.167 27.6797C372.167 13.3865 362.167 3.279 347.89 2.9668L347.207 2.95996V0.959961C355.002 0.959988 361.765 3.68288 366.584 8.45312C371.405 13.2249 374.167 19.9317 374.167 27.6797C374.167 33.0417 371.844 38.9639 368.32 43.542C368.889 43.9219 369.431 44.2916 369.916 44.6152H369.915C377.077 49.3101 382.087 58.5751 382.087 67.2793C382.087 75.5238 379.354 82.6922 374.557 87.8164C369.75 92.9499 362.973 95.9199 355.127 95.9199H311.367V0.959961H347.207V2.95996H313.367V93.9199H355.127L355.81 93.9121C370.087 93.5743 380.087 82.6357 380.087 67.2793ZM359.847 67.2793C359.847 63.8833 358.97 61.3511 357.606 59.7061C356.279 58.1044 354.345 57.1602 351.767 57.1602H333.606V76.3193H351.767V78.3193H331.606V55.1602H351.767C358.006 55.1602 361.847 59.8396 361.847 67.2793C361.847 74.1193 358.007 78.3193 351.767 78.3193V76.3193C354.418 76.3193 356.367 75.4416 357.67 74.0156C358.992 72.5679 359.847 70.335 359.847 67.2793ZM352.047 29.4795C352.047 26.4605 351.239 24.2418 349.999 22.8086C348.789 21.4099 346.999 20.5597 344.567 20.5596H333.606V37.5596H344.907C347.252 37.5047 348.971 36.6958 350.119 35.4277C351.287 34.1378 352.047 32.1669 352.047 29.4795ZM354.047 29.4795C354.047 35.5995 350.567 39.4396 344.927 39.5596H331.606V18.5596H344.567C350.447 18.5598 354.047 22.7598 354.047 29.4795Z" fill="#9C3D3D"/>
<path d="M295.07 2.95996H274.431L245.391 49.3994L216.351 2.95996H195.711V93.9199H213.95V33.4395L238.19 72.7998H252.591L276.831 33.4395V93.9199H295.07V2.95996ZM297.07 95.9199H274.831V40.499L253.708 74.7998H237.073L215.95 40.499V95.9199H193.711V0.959961H217.459L245.391 45.6279L273.322 0.959961H297.07V95.9199Z" fill="#9C3D3D"/>
<path d="M180.376 78.3193H136.576V54.9199H174.016V39.3193H136.576V18.5596H180.376V2.95996H118.336V93.9199H180.376V78.3193ZM182.376 20.5596H138.576V37.3193H176.016V56.9199H138.576V76.3193H182.376V95.9199H116.336V0.959961H182.376V20.5596Z" fill="#9C3D3D"/>
<path d="M101.359 2.95996H80.7197L51.6797 49.3994L22.6396 2.95996H2V93.9199H20.2393V33.4395L44.4795 72.7998H58.8799L83.1201 33.4395V93.9199H101.359V2.95996ZM103.359 95.9199H81.1201V40.499L59.9971 74.7998H43.3623L22.2393 40.499V95.9199H0V0.959961H23.748L51.6797 45.6279L79.6113 0.959961H103.359V95.9199Z" fill="#9C3D3D"/>
</svg>
