<svg width="1920" height="834" viewBox="0 0 1920 834" fill="none" xmlns="http://www.w3.org/2000/svg">
<g opacity="0.4" clip-path="url(#clip0_7970_622)">
<g opacity="0.5">
<path d="M1932.63 20.6201C1353.98 559.15 1118.46 548.22 820.85 481.98C689.92 452.84 574.21 395.6 445.58 385.39C145.58 361.56 -97.31 549.85 -133 864.39" stroke="#9C3D3D" stroke-width="1.52" stroke-miterlimit="10"/>
<path d="M1992.98 7.20996C1409.28 553.71 1160.41 530.05 854.87 460.21C725.21 430.72 595.93 373.5 462.26 366.88C156.78 350.63 -88.5 565 -125.47 886.16" stroke="#A6504E" stroke-width="1.56" stroke-miterlimit="10"/>
<path d="M2053.33 -6.19043C1464.59 548.27 1202.33 511.88 888.89 438.38C760.53 408.6 617.68 351.82 478.94 348.38C167.94 340.65 -79.68 580.16 -117.94 907.98" stroke="#B0635F" stroke-width="1.59" stroke-miterlimit="10"/>
<path d="M2113.67 -19.5898C1519.89 542.82 1244.31 493.72 922.91 416.58C795.84 386.5 639.45 329.82 495.63 329.86C179.2 329.94 -70.87 595.29 -110.37 929.78" stroke="#BA766F" stroke-width="1.62" stroke-miterlimit="10"/>
<path d="M2174.02 -32.9902C1575.21 537.38 1286.26 475.55 956.93 394.78C831.15 364.37 661.23 307.78 512.31 311.35C190.44 319.09 -62.06 610.44 -102.87 951.6" stroke="#C48980" stroke-width="1.66" stroke-miterlimit="10"/>
<path d="M2234.37 -46.3896C1630.5 531.94 1328.21 457.38 990.96 372.98C866.46 342.25 682.96 285.65 528.96 292.84C201.68 308.12 -53.24 625.59 -95.34 973.41" stroke="#CD9C91" stroke-width="1.69" stroke-miterlimit="10"/>
<path d="M2294.71 -59.79C1685.8 526.5 1370.16 439.21 1024.98 351.21C901.77 320.16 704.78 263.51 545.68 274.36C212.91 297.03 -44.43 640.74 -87.79 995.22" stroke="#D7AFA2" stroke-width="1.72" stroke-miterlimit="10"/>
<path d="M2355.06 -73.1904C1741.11 521.06 1412.06 421.05 1059 329.37C937.08 298.01 726.54 241.25 562.37 255.82C224.12 285.82 -35.63 655.89 -80.28 1017.04" stroke="#E1C2B2" stroke-width="1.76" stroke-miterlimit="10"/>
<path d="M2415.41 -86.5996C1796.41 515.61 1454.05 402.88 1093.02 307.57C972.39 275.89 748.27 218.76 579.02 237.31C235.26 274.11 -26.79 671.04 -72.79 1038.85" stroke="#EBD5C3" stroke-width="1.79" stroke-miterlimit="10"/>
<path d="M2475.76 -100C1851.71 510.17 1496 384.71 1127.04 285.77C1007.7 253.77 770.04 196.66 595.74 218.77C246.47 263.17 -17.99 686.19 -65.21 1060.66" stroke="#F5E8D4" stroke-width="1.82" stroke-miterlimit="10"/>
</g>
</g>
<defs>
<clipPath id="clip0_7970_622">
<rect width="1920" height="834" fill="white"/>
</clipPath>
</defs>
</svg>
